<svg width="28" height="28" viewBox="0 0 28 28" fill="none" xmlns="http://www.w3.org/2000/svg">
<path d="M13.8002 12.6003C15.3467 12.6003 16.6003 11.3467 16.6003 9.80023C16.6003 8.2538 15.3467 7.00016 13.8002 7.00016C12.2538 7.00016 11.0002 8.2538 11.0002 9.80023C11.0002 11.3467 12.2538 12.6003 13.8002 12.6003Z" fill="#263238"/>
<path fill-rule="evenodd" clip-rule="evenodd" d="M4 9.80023C4 11.648 4.51134 13.3765 5.40003 14.8518L12.5865 27.2999C13.1253 28.2333 14.4725 28.2334 15.0114 27.3L22.1786 14.8873C23.0809 13.4042 23.6005 11.6631 23.6005 9.80023C23.6005 4.38775 19.2131 0 13.8002 0C8.38741 0 4 4.38775 4 9.80023ZM20.3845 13.7957L20.372 13.8163L13.799 25.1999L7.20899 13.7849L7.1989 13.7681C6.5017 12.6108 6.10005 11.2555 6.10005 9.80023C6.10005 5.54753 9.54728 2.10005 13.8002 2.10005C18.0532 2.10005 21.5004 5.54753 21.5004 9.80023C21.5004 11.2673 21.0924 12.6323 20.3845 13.7957Z" fill="#263238"/>
</svg>
