<svg width="28" height="22" viewBox="0 0 28 22" fill="none" xmlns="http://www.w3.org/2000/svg">
<path d="M26.6033 21.167H7.8798C7.10812 21.167 6.48267 20.5415 6.48267 19.7698C6.48267 18.9981 7.10812 18.3727 7.8798 18.3727H26.6028C27.3745 18.3727 28 18.9981 28 19.7698C28 20.5415 27.375 21.167 26.6033 21.167Z" fill="#263238"/>
<path d="M26.6033 12.3974H7.8798C7.10812 12.3974 6.48267 11.772 6.48267 11.0003C6.48267 10.2286 7.10812 9.60315 7.8798 9.60315H26.6028C27.3745 9.60315 28 10.2286 28 11.0003C28.0004 11.772 27.375 12.3974 26.6033 12.3974Z" fill="#263238"/>
<path d="M26.6033 3.62746H7.8798C7.10812 3.62746 6.48267 3.00201 6.48267 2.23033C6.48267 1.45864 7.10812 0.833191 7.8798 0.833191H26.6028C27.3745 0.833191 28 1.45864 28 2.23033C28 3.00201 27.375 3.62746 26.6033 3.62746Z" fill="#263238"/>
<path d="M1.87635 4.21468C2.91264 4.21468 3.75271 3.37461 3.75271 2.33833C3.75271 1.30205 2.91264 0.461975 1.87635 0.461975C0.840072 0.461975 0 1.30205 0 2.33833C0 3.37461 0.840072 4.21468 1.87635 4.21468Z" fill="#263238"/>
<path d="M1.87635 12.8765C2.91264 12.8765 3.75271 12.0364 3.75271 11.0001C3.75271 9.96385 2.91264 9.12378 1.87635 9.12378C0.840072 9.12378 0 9.96385 0 11.0001C0 12.0364 0.840072 12.8765 1.87635 12.8765Z" fill="#263238"/>
<path d="M1.87635 21.5384C2.91264 21.5384 3.75271 20.6983 3.75271 19.662C3.75271 18.6257 2.91264 17.7856 1.87635 17.7856C0.840072 17.7856 0 18.6257 0 19.662C0 20.6983 0.840072 21.5384 1.87635 21.5384Z" fill="#263238"/>
</svg>
