<svg width="28" height="28" viewBox="0 0 28 28" fill="none" xmlns="http://www.w3.org/2000/svg">
<g clip-path="url(#clip0)">
<path d="M26.6033 24.167H7.8798C7.10812 24.167 6.48267 23.5415 6.48267 22.7698C6.48267 21.9981 7.10812 21.3727 7.8798 21.3727H26.6028C27.3745 21.3727 28 21.9981 28 22.7698C28 23.5415 27.375 24.167 26.6033 24.167Z" fill="#FF5722"/>
<path d="M26.6033 15.3974H7.8798C7.10812 15.3974 6.48267 14.772 6.48267 14.0003C6.48267 13.2286 7.10812 12.6031 7.8798 12.6031H26.6028C27.3745 12.6031 28 13.2286 28 14.0003C28.0004 14.772 27.375 15.3974 26.6033 15.3974Z" fill="#FF5722"/>
<path d="M26.6033 6.62746H7.8798C7.10812 6.62746 6.48267 6.00201 6.48267 5.23033C6.48267 4.45864 7.10812 3.83319 7.8798 3.83319H26.6028C27.3745 3.83319 28 4.45864 28 5.23033C28 6.00201 27.375 6.62746 26.6033 6.62746Z" fill="#FF5722"/>
<path d="M1.87635 7.21468C2.91264 7.21468 3.75271 6.37461 3.75271 5.33833C3.75271 4.30205 2.91264 3.46198 1.87635 3.46198C0.840072 3.46198 0 4.30205 0 5.33833C0 6.37461 0.840072 7.21468 1.87635 7.21468Z" fill="#FF5722"/>
<path d="M1.87635 15.8765C2.91264 15.8765 3.75271 15.0364 3.75271 14.0001C3.75271 12.9639 2.91264 12.1238 1.87635 12.1238C0.840072 12.1238 0 12.9639 0 14.0001C0 15.0364 0.840072 15.8765 1.87635 15.8765Z" fill="#FF5722"/>
<path d="M1.87635 24.5384C2.91264 24.5384 3.75271 23.6983 3.75271 22.662C3.75271 21.6257 2.91264 20.7856 1.87635 20.7856C0.840072 20.7856 0 21.6257 0 22.662C0 23.6983 0.840072 24.5384 1.87635 24.5384Z" fill="#FF5722"/>
</g>
<defs>
<clipPath id="clip0">
<rect width="28" height="28" fill="white"/>
</clipPath>
</defs>
</svg>
