<svg width="28" height="28" viewBox="0 0 28 28" fill="none" xmlns="http://www.w3.org/2000/svg">
<path d="M4.10445 25.6792C4.1575 25.4438 4.21848 25.2114 4.28707 24.9823C4.10094 24.9344 3.91233 24.9616 3.75613 25.0422L4.0846 25.6786L4.08512 25.6796L4.08873 25.6795M4.10445 25.6792L4.08873 25.6795M4.10445 25.6792L4.08873 25.6795M4.10445 25.6792L4.10362 25.6829L4.08873 25.6795M3.40394 25.9877L3.33887 25.8532L3.35166 25.656C3.35502 25.6041 3.36309 25.5574 3.37192 25.5182C4.50154 20.4984 8.98867 16.75 14.3476 16.75C19.7065 16.75 24.1936 20.4984 25.3232 25.5182L25.3232 25.5183C25.3281 25.5399 25.3325 25.5626 25.336 25.5864L25.336 25.5866C25.3391 25.6076 25.3418 25.6308 25.3435 25.6558L25.3563 25.8531L25.2702 26.0311C25.2313 26.1115 25.1786 26.1866 25.1143 26.2554C25.1143 26.2554 25.1143 26.2555 25.1143 26.2555L24.8715 26.0288L25.0852 26.2763C25.0083 26.3428 24.8605 26.4417 24.648 26.4568C24.4355 26.4718 24.2628 26.396 24.1476 26.3105C24.1395 26.3046 24.1317 26.2985 24.1242 26.2925C23.9515 26.1532 23.8942 25.9784 23.8853 25.9512C23.885 25.9502 23.8847 25.9494 23.8845 25.9489L3.40394 25.9877ZM3.40394 25.9877C3.40478 25.9898 3.40564 25.9919 3.40651 25.994L3.40689 25.995C3.41589 26.0169 3.44902 26.0974 3.52076 26.1849C3.53946 26.2091 3.55951 26.2326 3.58084 26.2554L3.58382 26.2527L3.40394 25.9877ZM24.408 24.9822C24.477 25.2126 24.5383 25.4462 24.5915 25.6829C24.5928 25.6886 24.5936 25.6932 24.5942 25.6969C24.5947 25.7001 24.5949 25.7027 24.595 25.7045C24.5948 25.7051 24.5944 25.7058 24.594 25.7065L24.6014 25.7076L25.338 25.81C25.3405 25.7922 25.3434 25.7662 25.3445 25.7344C25.3449 25.7242 25.3459 25.6945 25.3431 25.6558C25.3429 25.6518 25.3425 25.6477 25.3422 25.6436L25.3421 25.6423C25.3416 25.6361 25.3399 25.6158 25.335 25.5867C25.335 25.5867 25.335 25.5866 25.335 25.5865C25.3318 25.5673 25.3272 25.5443 25.3206 25.5189C25.3206 25.5189 25.3205 25.5189 25.3205 25.5188C25.3164 25.5028 25.3114 25.4859 25.3055 25.4684C25.3053 25.4679 25.305 25.4671 25.3047 25.4661C25.2958 25.4389 25.2386 25.2641 25.0658 25.1248C24.9512 25.0324 24.7694 24.9444 24.542 24.9605C24.494 24.9639 24.4494 24.9716 24.408 24.9822ZM14.3471 12.65C17.4675 12.65 19.9971 10.1204 19.9971 7C19.9971 3.87959 17.4675 1.35 14.3471 1.35C11.2267 1.35 8.69707 3.87959 8.69707 7C8.69707 10.1204 11.2267 12.65 14.3471 12.65ZM20.5971 7C20.5971 10.4518 17.7988 13.25 14.3471 13.25C10.8953 13.25 8.09707 10.4518 8.09707 7C8.09707 3.54822 10.8953 0.75 14.3471 0.75C17.7988 0.75 20.5971 3.54822 20.5971 7ZM25.9086 25.3865C26.1166 26.3109 25.3391 27.25 24.1476 27.25H4.54757C3.35606 27.25 2.57855 26.3109 2.78656 25.3865C3.97638 20.0991 8.70169 16.15 14.3476 16.15C19.9934 16.15 24.7188 20.0991 25.9086 25.3865Z" fill="#263238" stroke="#263238" stroke-width="1.5"/>
</svg>
