<svg width="28" height="28" viewBox="0 0 28 28" fill="none" xmlns="http://www.w3.org/2000/svg">
<path d="M25.3232 25.5182L25.3233 25.5184C25.3281 25.5399 25.3325 25.5626 25.336 25.5864L25.3361 25.5868C25.3391 25.6075 25.3418 25.6306 25.3435 25.6557L25.3563 25.8531L25.2702 26.0312C25.2313 26.1115 25.1786 26.1866 25.1143 26.2554L25.3232 25.5182ZM25.3232 25.5182C24.1936 20.4984 19.7065 16.75 14.3476 16.75C8.98867 16.75 4.50155 20.4983 3.37192 25.5182C3.36309 25.5574 3.35502 25.6041 3.35166 25.656L3.33888 25.8532M25.3232 25.5182L3.33888 25.8532M3.33888 25.8532L3.40393 25.9877M3.33888 25.8532L3.40393 25.9877M3.40393 25.9877C3.40477 25.9898 3.40562 25.9919 3.40649 25.994L3.40688 25.9949C3.41588 26.0168 3.44901 26.0974 3.52075 26.1849C3.53946 26.2091 3.55951 26.2326 3.58084 26.2554C3.79027 26.4798 4.13729 26.65 4.54757 26.65H24.1476C24.5578 26.65 24.9048 26.4798 25.1143 26.2555L3.40393 25.9877ZM4.08512 25.6796L4.0846 25.6786L3.75613 25.0422C3.91232 24.9616 4.10093 24.9344 4.28707 24.9823C4.21848 25.2114 4.1575 25.4438 4.10444 25.6792L4.0888 25.6795L4.08512 25.6796ZM20.5971 7C20.5971 10.4518 17.7988 13.25 14.3471 13.25C10.8953 13.25 8.09707 10.4518 8.09707 7C8.09707 3.54822 10.8953 0.75 14.3471 0.75C17.7988 0.75 20.5971 3.54822 20.5971 7ZM14.3471 12.65C17.4675 12.65 19.9971 10.1204 19.9971 7C19.9971 3.87959 17.4675 1.35 14.3471 1.35C11.2267 1.35 8.69707 3.87959 8.69707 7C8.69707 10.1204 11.2267 12.65 14.3471 12.65ZM25.9086 25.3865C26.1166 26.3109 25.3391 27.25 24.1476 27.25H4.54757C3.35606 27.25 2.57855 26.3109 2.78656 25.3865C3.97638 20.0991 8.70169 16.15 14.3476 16.15C19.9934 16.15 24.7188 20.0991 25.9086 25.3865Z" fill="#FF5722" stroke="#FF5722" stroke-width="1.5"/>
</svg>
