<svg width="22" height="22" viewBox="0 0 22 22" fill="none" xmlns="http://www.w3.org/2000/svg">
<path d="M1.28033 0.21967C0.987437 -0.0732233 0.512563 -0.0732233 0.21967 0.21967C-0.0732233 0.512563 -0.0732233 0.987437 0.21967 1.28033L9.68934 10.75L0.219669 20.2197C-0.0732231 20.5126 -0.0732231 20.9874 0.219669 21.2803C0.512564 21.5732 0.987436 21.5732 1.28033 21.2803L10.75 11.8107L20.2197 21.2803C20.5126 21.5732 20.9874 21.5732 21.2803 21.2803C21.5732 20.9874 21.5732 20.5126 21.2803 20.2197L11.8107 10.75L21.2803 1.28033C21.5732 0.987437 21.5732 0.512563 21.2803 0.21967C20.9874 -0.0732233 20.5126 -0.0732233 20.2197 0.21967L10.75 9.68934L1.28033 0.21967Z" fill="#FF5722"/>
</svg>
