<svg width="48" height="48" viewBox="0 0 48 48" fill="none" xmlns="http://www.w3.org/2000/svg">
<path d="M24 22C26.2091 22 28 20.2091 28 18C28 15.7909 26.2091 14 24 14C21.7909 14 20 15.7909 20 18C20 20.2091 21.7909 22 24 22Z" fill="#FF5722"/>
<path fill-rule="evenodd" clip-rule="evenodd" d="M10 18C10 20.6396 10.7305 23.1089 12 25.2163L22.2661 42.999C23.0359 44.3324 24.9603 44.3324 25.7302 42.9991L35.9688 25.2671C37.2578 23.1484 38 20.6611 38 18C38 10.2681 31.7324 4 24 4C16.2676 4 10 10.2681 10 18ZM33.4059 23.7077L33.388 23.7372L23.9983 39.9991L14.5842 23.6922L14.5697 23.6683C13.5738 22.0149 13 20.0789 13 18C13 11.9249 17.9245 7 24 7C30.0755 7 35 11.9249 35 18C35 20.0958 34.4171 22.0457 33.4059 23.7077Z" fill="#FF5722"/>
</svg>
