<svg width="24" height="24" viewBox="0 0 24 24" fill="none" xmlns="http://www.w3.org/2000/svg">
<circle cx="12" cy="12" r="12" fill="#263238"/>
<circle cx="12" cy="12" r="12" fill="#263238"/>
<path fill-rule="evenodd" clip-rule="evenodd" d="M7 8.5C7 8.22386 7.18655 8 7.41667 8H16.5833C16.8135 8 17 8.22386 17 8.5C17 8.77614 16.8135 9 16.5833 9H7.41667C7.18655 9 7 8.77614 7 8.5Z" fill="white"/>
<path fill-rule="evenodd" clip-rule="evenodd" d="M7 12.5C7 12.2239 7.18655 12 7.41667 12H16.5833C16.8135 12 17 12.2239 17 12.5C17 12.7761 16.8135 13 16.5833 13H7.41667C7.18655 13 7 12.7761 7 12.5Z" fill="white"/>
<path fill-rule="evenodd" clip-rule="evenodd" d="M7 16.5C7 16.2239 7.18655 16 7.41667 16H16.5833C16.8135 16 17 16.2239 17 16.5C17 16.7761 16.8135 17 16.5833 17H7.41667C7.18655 17 7 16.7761 7 16.5Z" fill="white"/>
</svg>
