<svg width="40" height="40" viewBox="0 0 40 40" fill="none" xmlns="http://www.w3.org/2000/svg">
<circle cx="20" cy="20" r="20" fill="#263238"/>
<path d="M19.9318 20.7766C19.9513 20.7766 19.9708 20.7766 19.9942 20.7766C20.002 20.7766 20.0097 20.7766 20.0175 20.7766C20.0292 20.7766 20.0448 20.7766 20.0565 20.7766C21.1978 20.7559 22.121 20.3293 22.8027 19.5134C24.3023 17.7159 24.053 14.6345 24.0258 14.3404C23.9284 12.1329 22.9468 11.0768 22.1366 10.584C21.5328 10.2154 20.8277 10.0166 20.0409 10H20.0136C20.0097 10 20.002 10 19.9981 10H19.9747C19.5423 10 18.6931 10.0745 17.879 10.5674C17.061 11.0603 16.0638 12.1164 15.9664 14.3404C15.9392 14.6345 15.6899 17.7159 17.1896 19.5134C17.8673 20.3293 18.7905 20.7559 19.9318 20.7766ZM17.0065 14.444C17.0065 14.4316 17.0104 14.4191 17.0104 14.4109C17.1389 11.4413 19.1216 11.1224 19.9708 11.1224H19.9864C19.9942 11.1224 20.0058 11.1224 20.0175 11.1224C21.0693 11.1472 22.8572 11.6028 22.9779 14.4109C22.9779 14.4233 22.9779 14.4357 22.9818 14.444C22.9857 14.473 23.2584 17.2893 22.0197 18.772C21.5289 19.3601 20.8745 19.65 20.0136 19.6583C20.0058 19.6583 20.002 19.6583 19.9942 19.6583C19.9864 19.6583 19.9825 19.6583 19.9747 19.6583C19.1177 19.65 18.4594 19.3601 17.9725 18.772C16.7377 17.2976 17.0026 14.4688 17.0065 14.444Z" fill="white"/>
<path d="M27.9989 25.8874C27.9989 25.8833 27.9989 25.8792 27.9989 25.875C27.9989 25.8419 27.995 25.8087 27.995 25.7715C27.9716 24.9514 27.921 23.0338 26.2305 22.4209C26.2188 22.4167 26.2032 22.4126 26.1915 22.4085C24.4347 21.9322 22.974 20.8553 22.9584 20.8429C22.7208 20.6648 22.3936 20.727 22.2261 20.9796C22.0586 21.2322 22.1171 21.5801 22.3547 21.7582C22.4209 21.8079 23.9712 22.9552 25.911 23.4853C26.8186 23.829 26.9199 24.8603 26.9472 25.8046C26.9472 25.8419 26.9472 25.875 26.9511 25.9081C26.955 26.2809 26.9316 26.8566 26.8693 27.1879C26.2382 27.5689 23.7648 28.886 20.0019 28.886C16.2547 28.886 13.7656 27.5648 13.1307 27.1838C13.0684 26.8524 13.0411 26.2768 13.0489 25.904C13.0489 25.8709 13.0528 25.8377 13.0528 25.8005C13.08 24.8562 13.1813 23.8249 14.0889 23.4811C16.0288 22.951 17.5791 21.7996 17.6453 21.7541C17.8829 21.576 17.9413 21.2281 17.7738 20.9754C17.6063 20.7228 17.2791 20.6607 17.0415 20.8388C17.026 20.8512 15.573 21.928 13.8085 22.4043C13.7929 22.4085 13.7812 22.4126 13.7695 22.4167C12.079 23.0338 12.0283 24.9514 12.005 25.7673C12.005 25.8046 12.005 25.8377 12.0011 25.8709C12.0011 25.875 12.0011 25.8792 12.0011 25.8833C11.9972 26.0987 11.9933 27.2045 12.1997 27.7595C12.2387 27.8671 12.3088 27.9583 12.4023 28.0204C12.5191 28.1032 15.3198 30.0001 20.0058 30.0001C24.6918 30.0001 27.4925 28.0991 27.6094 28.0204C27.699 27.9583 27.773 27.8671 27.8119 27.7595C28.0067 27.2086 28.0028 26.1028 27.9989 25.8874Z" fill="white"/>
</svg>
