<svg width="112" height="32" viewBox="0 0 112 32" fill="none" xmlns="http://www.w3.org/2000/svg">
<path d="M96 0C87.1776 0 80 7.17764 80 16C80 24.8217 87.1776 32 96 32C104.822 32 112 24.8217 112 16C112 7.17764 104.823 0 96 0ZM99.9791 16.5633H97.376C97.376 20.7221 97.376 25.8413 97.376 25.8413H93.5187C93.5187 25.8413 93.5187 20.7718 93.5187 16.5633H91.6852V13.2841H93.5187V11.1631C93.5187 9.64408 94.2406 7.27044 97.4114 7.27044L100.27 7.2814V10.4645C100.27 10.4645 98.5328 10.4645 98.1951 10.4645C97.8574 10.4645 97.3773 10.6334 97.3773 11.3578V13.2848H100.316L99.9791 16.5633Z" fill="#90A4AE"/>
<path d="M56 0C47.1776 0 40 7.17764 40 16C40 24.8217 47.1776 32 56 32C64.8217 32 72 24.8217 72 16C72 7.17764 64.823 0 56 0ZM63.1377 12.338C63.1448 12.4966 63.1486 12.6564 63.1486 12.8162C63.1486 17.6828 59.4454 23.2924 52.6699 23.2924C50.5902 23.2924 48.6542 22.6846 47.0249 21.6392C47.313 21.6734 47.6062 21.6908 47.9033 21.6908C49.6293 21.6908 51.2166 21.1017 52.4772 20.1144C50.866 20.0847 49.5055 19.0201 49.037 17.5564C49.2613 17.599 49.4926 17.6228 49.7292 17.6228C50.0649 17.6228 50.391 17.579 50.6997 17.4946C49.0151 17.1569 47.7461 15.6687 47.7461 13.8835C47.7461 13.868 47.7461 13.8519 47.7467 13.8371C48.243 14.1123 48.8108 14.2786 49.414 14.2973C48.4266 13.638 47.7764 12.5101 47.7764 11.2327C47.7764 10.5573 47.9575 9.92443 48.2746 9.38049C50.0901 11.6091 52.8046 13.0747 55.8647 13.2294C55.8015 12.9593 55.7699 12.679 55.7699 12.3896C55.7699 10.3562 57.4185 8.707 59.4519 8.707C60.5114 8.707 61.4672 9.15427 62.14 9.86965C62.9798 9.70466 63.7661 9.39918 64.4795 8.97575C64.2024 9.83614 63.6204 10.5573 62.858 11.0136C63.6036 10.9247 64.3152 10.7275 64.9732 10.4342C64.4821 11.1715 63.8576 11.8205 63.1377 12.338Z" fill="#90A4AE"/>
<path d="M22.9943 12.0816L19.9195 12.0919L19.9092 9.00674L22.9943 8.99707V12.0816Z" fill="#90A4AE"/>
<path d="M19.2031 16C19.2031 17.7665 17.7639 19.2031 15.9987 19.2031C14.2328 19.2031 12.7949 17.7659 12.7969 15.9993C12.7975 15.302 13.0237 14.6581 13.4027 14.1322C13.986 13.3254 14.9314 12.7969 16.0006 12.7969C17.0692 12.7969 18.0153 13.326 18.5972 14.1329C18.9749 14.6588 19.2031 15.3026 19.2031 16Z" fill="#90A4AE"/>
<path d="M16 20.9772C18.7449 20.9772 20.9774 18.7435 20.9774 15.9999C20.9774 15.3399 20.844 14.709 20.6074 14.1328H23.3252V21.5831C23.3252 22.5459 22.5422 23.3258 21.5813 23.3258H10.4168C9.45461 23.3258 8.67285 22.5459 8.67285 21.5831V14.1328H11.3894C11.1548 14.709 11.0233 15.3399 11.0233 15.9999C11.0233 18.7435 13.2551 20.9772 16 20.9772Z" fill="#90A4AE"/>
<path fill-rule="evenodd" clip-rule="evenodd" d="M16 0C7.17764 0 0 7.17764 0 16C0 24.8217 7.17764 32 16 32C24.8217 32 32 24.8217 32 16C32 7.17764 24.823 0 16 0ZM25.0995 21.5832C25.0995 23.5237 23.5218 25.1008 21.5825 25.1008H10.4175C8.47756 25.1008 6.90051 23.5237 6.90051 21.5832V10.4181C6.90051 8.47821 8.47756 6.90115 10.4175 6.90115H21.5819C23.5218 6.90115 25.0995 8.47821 25.0995 10.4181V21.5832Z" fill="#90A4AE"/>
</svg>
